<?xml version="1.0" standalone="no"?>
<!DOCTYPE svg PUBLIC "-//W3C//DTD SVG 1.1//EN" "http://www.w3.org/Graphics/SVG/1.1/DTD/svg11.dtd" >
<!--
2013-9-30: Created.
-->
<svg>
<metadata>
Created by iconfont
</metadata>
<defs>

<font id="iconfont" horiz-adv-x="1024" >
  <font-face
    font-family="iconfont"
    font-weight="500"
    font-stretch="normal"
    units-per-em="1024"
    ascent="896"
    descent="-128"
  />
    <missing-glyph />
    
    <glyph glyph-name="icon01" unicode="&#58905;" d="M756.863359 477.962022l-42.535769 0L714.32759 640.482489c0 115.659183-94.097098 209.766514-209.759351 209.766514-115.656113 0-209.775724-94.107331-209.775724-209.766514l0-162.520467-42.496883 0c-46.249347 0-83.895759-37.681204-83.895759-83.925435l0-387.272277c0-46.300512 37.646412-83.946924 83.895759-83.946924l504.56875 0c46.251394 0 83.915201 37.646412 83.915201 83.946924L840.779583 394.035564C840.77856 440.280818 803.114752 477.962022 756.863359 477.962022L756.863359 477.962022zM548.499797 58.632631 548.499797 58.632631l-87.806835 0-16.527418 139.669016c0 33.338293 27.059286 60.387345 60.369949 60.387345 33.363875 0 60.439534-27.049053 60.439534-60.387345L548.499797 58.632631 548.499797 58.632631zM624.493585 477.962022 624.493585 477.962022 384.630612 477.962022 384.630612 640.482489c0 66.131163 53.806463 119.936603 119.936603 119.936603 66.174142 0 119.925347-53.804417 119.925347-119.936603L624.492562 477.962022z"  horiz-adv-x="1024" />

    
    <glyph glyph-name="wechat" unicode="&#59028;" d="M405.333333 725.333333C228.693333 725.333333 85.333333 610.56 85.333333 469.333333 85.333333 388.693333 131.413333 317.44 203.946667 270.506667L170.666667 170.666667 277.333333 234.666667C315.306667 221.44 357.12 213.333333 401.493333 213.333333 390.4 240.213333 384 268.8 384 298.666667 384 439.893333 517.546667 554.666667 682.666667 554.666667 690.773333 554.666667 698.88 554.666667 706.56 553.386667 663.04 653.226667 545.28 725.333333 405.333333 725.333333M277.333333 618.666667C300.8 618.666667 320 599.466667 320 576 320 552.533333 300.8 533.333333 277.333333 533.333333 253.866667 533.333333 234.666667 552.533333 234.666667 576 234.666667 599.466667 253.866667 618.666667 277.333333 618.666667M490.666667 618.666667C514.133333 618.666667 533.333333 599.466667 533.333333 576 533.333333 552.533333 514.133333 533.333333 490.666667 533.333333 467.2 533.333333 448 552.533333 448 576 448 599.466667 467.2 618.666667 490.666667 618.666667M682.666667 512C541.44 512 426.666667 416.426667 426.666667 298.666667 426.666667 180.906667 541.44 85.333333 682.666667 85.333333 711.253333 85.333333 738.56 88.746667 764.16 96L853.333333 42.666667 826.88 122.453333C893.866667 161.28 938.666667 225.706667 938.666667 298.666667 938.666667 416.426667 823.893333 512 682.666667 512M597.333333 405.333333C620.8 405.333333 640 386.133333 640 362.666667 640 339.2 620.8 320 597.333333 320 573.866667 320 554.666667 339.2 554.666667 362.666667 554.666667 386.133333 573.866667 405.333333 597.333333 405.333333M768 405.333333C791.466667 405.333333 810.666667 386.133333 810.666667 362.666667 810.666667 339.2 791.466667 320 768 320 744.533333 320 725.333333 339.2 725.333333 362.666667 725.333333 386.133333 744.533333 405.333333 768 405.333333Z"  horiz-adv-x="1024" />

    
    <glyph glyph-name="duihuakuang1" unicode="&#58910;" d="M908.732232 801.077094l-762.424516 0c-36.913724 0-66.947761-30.034037-66.947761-66.947761l0-482.31798c0-36.919864 30.034037-66.947761 66.947761-66.947761l132.198881 0c21.472034 0 38.937824-17.464767 38.937824-38.938847l0-145.57554 204.329688 175.143972c7.046486 6.036483 16.029068 9.367345 25.331945 9.367345l361.627201 0c36.912701 0 66.946738 30.02892 66.946738 66.948785L975.679993 734.129332C975.67897 771.042034 945.644933 801.077094 908.732232 801.077094zM947.670056 251.811352c0-21.472034-17.46579-38.946011-38.937824-38.946011L547.105031 212.865341c-15.97381 0-31.455409-5.717212-43.560098-16.118096l-158.090575-135.487787L345.454358 145.92679c0 36.905538-30.034037 66.940598-66.947761 66.940598L146.307715 212.867388c-21.472034 0-38.938847 17.47193-38.938847 38.946011L107.368868 734.129332c0 21.479197 17.464767 38.944987 38.938847 38.944987l762.424516 0c21.469987 0 38.937824-17.464767 38.937824-38.944987L947.670056 251.811352 947.670056 251.811352z"  horiz-adv-x="1024" />

    
    <glyph glyph-name="zan11" unicode="&#59059;" d="M886.59584 472.46208 648.01152 472.46208C740.45184 813.91488 584.30464 831.36 584.30464 831.36c-66.2016 0-52.4608-52.34048-57.4592-61.06112 0-166.98624-177.37216-297.8368-177.37216-297.8368l0-473.54752c0-46.72768 63.70048-63.55456 88.6848-63.55456l358.5024 0c33.728 0 61.20576 88.48256 61.20576 88.48256C946.56 325.41184 946.56 415.13472 946.56 415.13472 946.56 477.44256 886.59584 472.46208 886.59584 472.46208L886.59584 472.46208zM886.59584 472.46208M251.56736 472.3072 108.69888 472.3072c-29.51296 0-29.97888-28.97664-29.97888-28.97664l29.51296-477.59232c0-30.37824 30.4448-30.37824 30.4448-30.37824l123.66336 0c25.76256 0 25.5296 20.09472 25.5296 20.09472L287.87072 436.09088C287.87072 472.77312 251.56736 472.3072 251.56736 472.3072L251.56736 472.3072zM251.56736 472.3072"  horiz-adv-x="1024" />

    
    <glyph glyph-name="qq" unicode="&#58888;" d="M273.5104 415.82592 272.31232 419.55328 271.33952 424.3968 270.6944 427.04896 270.6944 430.3872 270.6944 434.37056 270.6944 437.97504 271.85152 442.27584 273.02912 446.8224 274.5856 451.59424 276.6848 456.9088 279.43936 462.42816 283.33056 467.95776 283.33056 471.82848 283.70944 475.45344 284.3136 480.37888 285.98272 485.91872 287.51872 491.89888 288.74752 494.6432 290.16064 497.2032 291.98336 500.04992 293.96992 502.1696 293.96992 506.0608 293.96992 510.43328 293.96992 515.84 295.1168 522.88512 296.27392 531.06688 298.33216 540.85632 301.16864 551.04512 303.27808 556.6464 305.36704 562.7392 307.6608 568.4224 310.40512 574.5152 313.20064 581.18144 316.416 587.42784 320.03072 594.09408 324.58752 600.75008 326.69696 604.5696 328.93952 607.6928 333.824 614.73792 338.85184 621.76256 344.55552 628.992 350.6688 636.02688 357.30432 642.95936 364.22656 650.0864 372.60288 657.77664 377.91744 662.45632 384.39936 667.50464 390.97344 671.95904 398.08 676.23936 404.91008 680.04864 412.61056 683.20256 420.79232 687.08352 428.92288 689.74592 437.03296 692.51072 445.7984 695.25504 454.5536 697.344 463.75936 699.0848 473.09824 700.59008 482.31424 701.81888 491.52 703.0784 501.34016 703.61088 510.67904 703.61088 520.33536 703.61088 530.35008 703.61088 540.01664 702.39232 549.7344 701.2352 559.63648 700.20096 568.832 697.98912 578.53952 695.92064 587.65312 693.54496 597.63712 690.8928 606.7712 687.65696 615.51616 683.96032 624.85504 680.04864 633.37472 675.77856 641.65888 671.0272 649.7792 665.79456 656.77312 660.93056 660.0192 658.18624 663.41888 656.1792 669.91104 650.67008 675.3792 645.34528 680.83712 639.83616 686.15168 633.7536 690.5344 627.85536 695.7568 621.76256 699.392 615.2192 703.0784 609.40288 706.99008 602.63424 710.23616 596.74624 715.69408 584.28416 718.37696 577.8432 720.47616 571.87328 722.57536 565.39136 724.45952 559.29856 725.77024 554.05568 727.47008 547.8912 730.44992 536.8832 732.35456 527.24736 733.5936 517.92896 734.65856 510.43328 736.33792 499.01568 736.7168 497.2032 738.05824 495.14496 741.67296 489.23648 743.99744 485.23264 746.05568 481.06496 748.67712 476.60032 750.99136 471.2448 752.49664 465.7664 754.13504 459.75552 755.37408 453.59104 755.93728 450.56 756.45952 446.8224 756.45952 443.57632 755.93728 440.36096 755.93728 436.35712 754.9952 432.47616 753.27488 424.96 751.29856 421.16096 749.83424 416.89088 749.83424 415.82592 750.53056 414.50496 752.49664 411.38176 761.05728 398.71488 767.81568 389.20192 771.05152 382.85312 775.41376 375.90016 779.2128 368.2816 783.59552 360.1408 787.97824 350.98624 792.91392 340.62336 795.6992 334.27456 798.23872 328.06912 800.43008 321.52576 802.59072 315.63776 804.23936 309.4528 805.91872 303.64672 808.0384 292.32128 809.71776 280.75008 810.87488 270.4896 810.87488 264.88832 810.87488 260.28032 810.87488 256.01024 810.09664 250.88 808.99072 242.0224 807.4752 234.06592 805.12 226.84672 804.23936 223.90784 802.59072 220.3648 801.21856 217.89696 799.37536 214.85568 797.75744 212.9408 795.6992 210.46272 793.856 208.46592 791.88992 206.75584 789.53472 205.7216 787.41504 204.68736 785.67424 204.11392 784.15872 204.11392 783.01184 204.11392 781.312 204.68736 778.07616 206.2848 776.59136 207.34976 775.03488 208.46592 773.33504 209.99168 771.61472 211.70176 768.77824 214.85568 765.41952 219.31008 762.7776 223.90784 760.13568 227.584 757.5552 231.86432 753.92 239.4624 749.83424 247.36768 749.35296 247.64416 748.67712 247.64416 747.01824 246.40512 746.05568 244.3264 744.45824 241.74592 741.67296 234.06592 737.47456 223.13984 732.09856 209.99168 728.05376 203.43808 723.8144 196.59776 718.77632 188.90752 713.43104 181.38112 710.69696 177.9712 707.3792 174.25408 699.7504 166.7584 700.416 166.08256 701.45024 165.00736 705.25952 162.77504 721.13152 155.14624 728.05376 151.2448 734.65856 147.456 741.19168 142.68416 747.01824 137.76896 749.83424 135.54688 751.95392 132.98688 754.13504 130.01728 755.93728 126.80192 756.91008 124.12928 758.09792 120.92416 758.60992 118.14912 759.17312 114.91328 758.60992 112.7424 758.60992 110.5408 758.09792 108.26752 756.91008 106.1888 756.45952 104.56064 755.37408 102.58432 752.49664 98.6624 749.83424 95.51872 747.776 93.16352 746.05568 91.42272 741.67296 88.22784 736.7168 85.44256 731.43296 82.78016 725.77024 80.22016 719.45216 77.74208 716.05248 76.70784 713.07264 75.86816 705.73056 74.15808 698.15296 72.52992 690.5344 70.912 682.25024 69.56032 673.71008 69.20192 664.95488 68.1472 656.29184 68.1472 647.17824 68.1472 637.77792 68.1472 627.97824 68.72064 618.8544 69.56032 609.01376 70.912 599.25504 71.95648 588.97408 73.39008 579.01056 75.86816 569.2928 77.74208 559.63648 80.50688 549.7344 84.04992 540.01664 86.97856 534.89664 88.68864 530.35008 90.30656 527.47264 91.42272 524.61568 92.02688 520.93952 92.02688 516.53632 92.02688 507.19744 92.68224 502.4768 93.16352 496.39424 93.83936 492.4928 90.30656 487.168 86.97856 479.9488 83.46624 471.9616 79.08352 467.10784 76.70784 462.03904 74.82368 450.84672 70.2464 444.76416 68.72064 438.38464 67.00032 429.53728 65.28 423.99744 64.84992 418.14016 64.34816 412.02688 63.67232 404.91008 63.40608 398.08 63.40608 390.97344 63.40608 375.83872 63.40608 359.424 63.67232 343.48032 65.28 335.4112 66.42688 327.61856 67.584 320.03072 68.72064 312.44288 70.2464 305.36704 72.52992 298.33216 74.15808 291.98336 76.70784 285.98272 79.08352 280.38144 81.75616 275.51744 84.67456 270.6944 88.22784 269.04576 89.94816 266.88512 92.02688 265.24672 93.83936 263.77216 95.92832 262.41024 98.00704 261.35552 100.10624 259.82976 104.56064 259.29728 106.86464 258.62144 109.42464 258.62144 111.79008 259.29728 114.46272 259.29728 117.11488 259.82976 119.76704 259.82976 121.38496 259.82976 125.12256 260.08576 127.9488 261.35552 131.18464 262.41024 134.42048 264.32512 138.32192 265.728 139.8272 266.88512 141.568 269.90592 145.26464 272.31232 147.16928 274.5856 148.50048 276.6848 150.19008 280.00256 151.2448 282.66496 152.86272 285.98272 154.5728 289.76128 155.70944 293.56032 156.86656 297.96352 157.82912 302.1312 158.38208 307.07712 159.0272 312.44288 159.4368 313.83552 159.8976 314.14272 159.8976 314.81856 160.47104 314.81856 161.1264 313.83552 162.4576 310.9888 163.80928 303.872 169.97376 299.08992 173.78304 293.56032 178.62656 287.98976 184.04352 282.19392 190.96576 275.51744 198.76864 273.02912 202.98752 269.73184 207.34976 266.88512 212.38784 264.32512 217.89696 260.87424 223.13984 258.62144 229.12 255.93856 235.08992 253.25568 241.74592 251.31008 248.12544 249.45664 256.01024 248.90368 256.29696 248.34048 256.29696 248.05376 256.86016 247.36768 256.86016 246.24128 256.29696 245.67808 256.01024 244.89984 254.68928 244.62336 253.0816 244.03968 251.648 243.02592 249.26208 239.7696 243.46624 238.08 239.95392 235.39712 236.89216 232.5504 233.20576 229.40672 229.12 226.08896 225.49504 222.18752 221.98272 218.58304 218.68544 214.58944 216.064 210.2272 213.32992 206.0288 211.70176 201.08288 210.46272 196.22912 209.99168 195.75808 209.99168 195.08224 209.99168 193.96608 210.46272 193.08544 212.38784 191.66208 213.32992 189.7984 217.89696 188.63104 220.3648 187.38176 223.90784 186.34752 227.584 185.79456 231.20896 184.25856 239.4624 183.67488 244.3264 183.67488 249.26208 183.67488 260.28032 184.25856 272.18944 185.22112 278.272 186.34752 284.53888 187.38176 291.28704 189.21472 297.56416 191.27296 304.7936 193.39264 311.83872 196.22912 319.08864 198.90176 326.00064 202.5984 333.01504 206.0288 340.62336 210.2272 347.76064 215.16288 355.46112 220.18048 362.38336 225.42336 370.08384 229.79584 375.4496 235.39712 381.5936 241.29536 387.7888 244.03968 390.73792 247.36768 394.05568 252.20096 398.24384 257.16736 402.51392 265.24672 409.7536 271.33952 414.208Z"  horiz-adv-x="1024" />

    
    <glyph glyph-name="duihua2" unicode="&#58945;" d="M214.032 93.68c0 0-29.792-116.128-89.376-145.168 0 0 268.16 29.04 327.744 145.168L214.032 93.68zM869.568 816 154.448 816C105.072 816 64 780.496 64 732.416l0-580.656C64 103.664 105.072 64 154.448 64l715.12 0C918.928 64 960 103.664 960 151.76L960 732.416C960 780.496 918.928 816 869.568 816zM273.632 384c-32.912 0-59.6 26.016-59.6 58.096 0 32.064 26.672 58.064 59.6 58.064s59.6-26 59.6-58.064C333.232 410.016 306.544 384 273.632 384zM512 384c-32.912 0-59.6 26.016-59.6 58.096 0 32.064 26.672 58.064 59.6 58.064 32.944 0 59.616-26 59.616-58.064C571.616 410.016 544.944 384 512 384zM750.352 384c-32.912 0-59.6 26.016-59.6 58.096 0 32.064 26.688 58.064 59.6 58.064 32.944 0 59.6-26 59.6-58.064C809.952 410.016 783.296 384 750.352 384z"  horiz-adv-x="1024" />

    
    <glyph glyph-name="seeuser" unicode="&#59423;" d="M345.763396 694.345234c23.812335 29.027104 53.188386 47.91222 80.491219 60.169381 13.139252 5.898337 26.89658 10.092869 40.590464 12.890588 15.122419 3.089361 30.256094 4.466732 44.416606 4.552689l0.080841 0 0.656963 0.001023 0.656963-0.001023 0.080841 0c14.160511-0.085958 29.293163-1.463328 44.416606-4.552689 13.693884-2.797719 27.451212-6.992251 40.590464-12.890588 27.303856-12.257162 56.679907-31.142278 80.490196-60.169381 18.919908-23.064298 34.198893-52.305273 41.965787-89.354074 5.513574-26.299993 7.27366-55.94415 4.76349-84.952834-2.38021-27.533077-8.609075-54.831816-19.123546-78.636988-5.731538-12.974499-13.662161-28.107151-24.632004-45.046962-8.782014-13.558807-19.430538-28.127617-32.337499-43.444465-2.281973-4.033873-10.17985-20.394493 5.689582-29.870308 18.24248-10.894118 62.590524-37.638225 103.817484-62.847373 27.00812-16.514115 53.829999-33.085536 73.069179-45.339628 14.011108-8.9263 30.843472-20.164249 44.925189-34.5724 15.693424-16.056698 27.712155-35.671431 29.182646-59.82555 0.432859-7.096628 0.63138-15.47239 0.665149-24.228821 0.035816-9.708106-0.157589-19.244296-0.477884-27.582195-0.740874-19.304671-4.740978-36.20662-14.56881-49.251727-10.765181-14.289448-27.005051-22.819728-51.15303-23.352871l-0.405229 0c-94.846158 0.343831-203.744357 0.515746-327.616596 0.515746s-232.770438-0.171915-327.616596-0.515746l-0.404206 0c-24.14798 0.533143-40.387849 9.063423-51.152007 23.352871-9.827833 13.045107-13.82896 29.947056-14.56881 49.251727-0.320295 8.337899-0.5137 17.875113-0.477884 27.583219 0.031722 8.755408 0.233314 17.130146 0.664126 24.227798 1.471514 24.15412 13.490246 43.767829 29.183669 59.82555 14.08274 14.408151 30.913057 25.647123 44.925189 34.5724 19.237133 12.253068 46.056965 28.822442 73.062016 45.336558 41.229007 25.209148 85.580121 51.955302 103.823624 62.850443 15.869433 9.476839 7.971555 25.836435 5.689582 29.870308-12.904914 15.316847-23.554462 29.885658-32.336476 43.444465-10.970866 16.939811-18.902512 32.072463-24.632004 45.046962-10.514471 23.805172-16.743336 51.103912-19.12457 78.636988-2.51017 29.008684-0.748037 58.652841 4.76349 84.952834C311.565527 642.039961 326.843488 671.281959 345.763396 694.345234"  horiz-adv-x="1024" />

    
    <glyph glyph-name="diamond" unicode="&#58880;" d="M957.803345 542.437475a54.777581 54.777581 0 0 1-2.261506 4.523014L832.128041 754.043894 735.587288 542.350494l222.216057 0.086981z m-610.464569 0h329.628416L512.066515 775.700123l-164.727739-233.262648zM478.232942 786.049842H245.580185c-9.046027 0-18.872836-3.305279-27.223015-8.611121l99.585089-218.214931 160.290683 226.826052z m328.759629-5.91471c-7.132444 3.740184-15.046694 5.91471-22.526039 5.91471h-238.48151l160.291706-226.826052 100.715843 220.911342zM337.945849 508.778888l173.685761-537.581632c0.434905-0.086981 0.782829-0.086981 1.217734-0.173962l173.423795 537.755594H337.945849zM194.613396 748.477109L74.589812 547.04747c-0.955768-1.565658-1.825578-3.044336-2.695388-4.523014h216.737276L194.613396 748.477109zM67.89432 508.777865l0.956791-1.65264h1.73962a682.299641 682.299641 0 0 0 8.088213-10.001795l381.203048-475.134371L302.634622 508.777865H67.89432z m890.604874 0H721.671347L560.422849 8.943952l391.640772 488.180502c2.783393 3.479241 4.870938 7.480368 6.436596 11.655457z"  horiz-adv-x="1024" />

    
    <glyph glyph-name="err" unicode="&#58943;" d="M1015.775 16.427L559.051 807.494a54.345 54.345 0 0 1-47.063 27.17 54.352 54.352 0 0 1-47.065-27.17L7.29 14.854a54.342 54.342 0 0 1 0.001-54.345 54.352 54.352 0 0 1 47.064-27.175h915.293c30.014 0 54.343 24.332 54.343 54.347-0.001 10.557-3.009 20.407-8.216 28.746zM558.612 99.18c0-25.744-20.871-46.612-46.613-46.612-25.741 0-46.609 20.868-46.609 46.612v1.493c0 25.744 20.868 46.614 46.609 46.614 25.742 0 46.613-20.87 46.613-46.614v-1.493z m0 170.316c0-25.744-20.868-46.612-46.613-46.612-25.74 0-46.609 20.868-46.609 46.612v247.84c0 25.744 20.869 46.611 46.609 46.611 25.745 0 46.613-20.868 46.613-46.611v-247.84z"  horiz-adv-x="1024" />

    
    <glyph glyph-name="zan" unicode="&#58890;" d="M863.528 494.619h-189.546c-4.355 0-8.103 1.944-10.267 5.306-2.179 3.398-2.543 7.234-0.993 10.99 10.767 20.357 61.263 122.977 47.843 232.075-3.75 30.634-20.191 71.877-77.235 94.382-14.796 5.823-42.284 8.553-63.072 9.165-49.932 1.471-60.023-8.197-64.331-12.326-0.175-0.166-0.345-0.337-0.516-0.508-16.074-16.419-14.765-39.95-13.107-69.743 0.847-15.224 1.806-32.465 0.915-52.163-4.879-52.821-11.903-81.339-25.875-105.102-43.358-73.813-116.597-110.969-130.698-112.11h-277.946c-12.533 0-22.692-10.159-22.692-22.692v-441.935c0-12.532 10.159-22.692 22.692-22.692h175.111c0.916 0 1.813 0.069 2.7 0.175h111.458c51.169-41.953 93.4-92.639 124.875-150.060-96.433 126.503-31.468 72.653 75.782 72.653h223.378c57.151 0 103.213 31.141 120.216 81.27 0.148 0.436 0.284 0.878 0.406 1.322 2.393 8.789 8.552 27.087 16.35 50.253 29.555 87.811 79.020 234.784 79.020 313.441 0 77.393-43.040 118.3-124.466 118.3zM81.39 449.199h129.726v-396.55h-129.726v396.55zM865.96 77.356c-8.151-24.214-14.092-41.865-16.924-52.066-10.874-31.242-39.621-49.873-77.033-49.873h-223.378c-90.884 0-144.719 44.626-167.708 63.681-10.328 8.558-16.561 13.726-26.474 13.726h-97.94v396.375h80.305c21.385 0 54.899 18.707 79.131 36.213 25.994 18.778 62.799 51.075 90.534 98.291 20.288 34.51 27.281 73.208 31.988 124.459 0.032 0.338 0.055 0.675 0.071 1.016 1.038 22.23-0.042 41.679-0.911 57.307-0.675 12.152-1.495 26.861-0.191 33.453 16.986 3.283 65.394 0.673 79.264-4.785 29.529-11.651 45.501-30.517 48.827-57.687 12.085-98.238-37.377-194.894-43.055-205.593-1.915-3.509-3.301-7.598-3.922-11.934-5.083-7.447-3.647-27.956 6.987-44.537 10.537-16.384 28.65-26.166 48.455-26.166h189.546c56.168 0 79.080-21.126 79.080-72.916-0.001-71.224-49.863-219.372-76.649-298.964z"  horiz-adv-x="1024" />

    
    <glyph glyph-name="zhinanzhen" unicode="&#58930;" d="M512 849.454545C254.929455 849.454545 46.545455 641.024 46.545455 384c0-257.070545 208.384-465.454545 465.454545-465.454545 257.093818 0 465.454545 208.384 465.454545 465.454545 0 257.024-208.360727 465.454545-465.454545 465.454545z m0-843.636363c-208.523636 0-378.181818 169.658182-378.181818 378.181818S303.476364 762.158545 512 762.158545 890.181818 592.523636 890.181818 384 720.523636 5.818182 512 5.818182z m174.545455 581.818182c-2.932364 0-5.771636-0.465455-8.448-1.256728l-208.384-63.208727a145.850182 145.850182 0 0 1-96.954182-96.930909l-63.162182-208.337455a29.090909 29.090909 0 0 1 36.305454-36.305454l208.314182 63.208727a145.850182 145.850182 0 0 1 96.977455 96.907637l63.162182 208.360727A29.090909 29.090909 0 0 1 686.545455 587.636364zM512 325.818182a58.181818 58.181818 0 1 0 0 116.363636 58.181818 58.181818 0 0 0 0-116.363636z"  horiz-adv-x="1024" />

    
    <glyph glyph-name="weibo" unicode="&#58882;" d="M742.4675 380.32779600000003l-7.738327 146.045938c0 0-47.419292 67.19177-248.735684 3.931123 0 0 63.1327 157.839306-137.938879 126.401407-201.327475-31.569876-528.925387-477.582025-221.108013-615.520904 307.952374-138.183693 734.059059-35.625924 730.127936 232.769403C857.074532 273.95577000000003 880.654215 380.32779600000003 742.4675 380.32779600000003M428.049226 38.02293199999997C271.354399 10.505074000000036 130.120106 69.20594200000005 112.494532 169.236992c-17.494604 99.903102 95.215375 203.229566 251.661358 230.740372 156.950723 27.638754 298.053037-31.441928 315.423723-130.968239C697.202165 168.98109599999998 584.496217 65.53071499999999 428.049226 38.02293199999997M395.991737 354.737215c-211.72752-10.133068-186.114776-193.334259-186.114776-193.334259 9.764336-59.077659 82.913238-92.677574 219.835587-78.733272C566.762844 96.36917200000005 607.833101 365.00629100000003 395.991737 354.737215M365.712422 163.95284600000002c-6.213027-25.73767-28.77618-42.599586-49.825115-37.531038-21.294756 5.075601-33.344019 30.425398-26.999014 56.163067 6.205975 25.73767 28.78021 42.474661 49.818062 37.531038C359.886261 214.915387 371.925449 189.55450800000006 365.712422 163.95284600000002M426.819113 211.60989900000004c-13.688406 0-24.845057 11.281576-24.845057 24.969983 0 13.819377 11.157658 25.104983 24.845057 25.104983 13.819377 0 24.856139-11.285606 24.856139-25.104983C451.675252 222.891475 440.638489 211.60989900000004 426.819113 211.60989900000004M821.94428 447.834902c16.350125-5.456422 36.005738 12.170159 36.005738 12.170159 31.694802 211.087781-196.895643 162.407145-196.895643 162.407145l0-39.812942c199.04557 27.386888 146.689707-122.594203 146.689707-122.594203S805.719081 453.284272 821.94428 447.834902M645.95955 761.208437l0-86.969286c361.068872 59.329525 266.366296-267.378796 266.366296-267.378796s-4.056048-14.70796 25.605692-26.501327c29.543867-11.918293 65.037813 26.501327 65.037813 26.501327C1060.276897 867.196619 645.95955 761.208437 645.95955 761.208437"  horiz-adv-x="1024" />

    
    <glyph glyph-name="xingzhuang" unicode="&#58893;" d="M785.066667-128H238.933333A68.266667 68.266667 0 0 0 170.666667-59.733333V827.733333A68.266667 68.266667 0 0 0 238.933333 896h546.133334A68.266667 68.266667 0 0 0 853.333333 827.733333v-887.466666a68.266667 68.266667 0 0 0-68.266666-68.266667zM512-59.733333a68.266667 68.266667 0 1 1 3.100444 136.504889A68.266667 68.266667 0 0 1 512-59.733333z m273.066667 887.466666H238.933333v-682.666666h546.133334v682.666666z"  horiz-adv-x="1024" />

    
    <glyph glyph-name="douban" unicode="&#59135;" d="M73.142857 837.485714h877.714286v-99.961904H73.142857V837.485714m802.133333-587.580952V635.12381H148.72381v-385.219048h726.55238M256 537.6h514.438095v-187.733333H256v187.733333m460.8-509.561905c31.695238 48.761905 60.952381 104.838095 87.771429 168.228572l-104.838096 39.009523c-26.819048-75.580952-58.514286-143.847619-95.085714-207.238095h-182.857143c-29.257143 80.457143-65.828571 148.72381-102.4 207.238095l-97.523809-39.009523c39.009524-60.952381 73.142857-114.590476 97.523809-168.228572H48.761905v-97.523809h926.47619v97.523809H716.8m0 0"  horiz-adv-x="1024" />

    
    <glyph glyph-name="moon" unicode="&#58913;" d="M306.16807158 761.43011121c0-325.44737264 223.24396594-589.25371973 498.60261715-589.25371973 68.45171229 0 133.67050365 16.38013266 193.07003735 45.82126584-73.0640128-192.25103072-258.46125118-329.15445529-476.3601212-329.15445531-281.60896496 0-509.93939317 228.3304282-509.93939316 509.93939317 0 207.76905115 124.48900824 386.18318033 302.73071497 465.66992937-5.00025102-33.53616633-8.10385511-67.8051281-8.10385511-103.02241334z"  horiz-adv-x="1024" />

    
    <glyph glyph-name="comments" unicode="&#58889;" d="M157.538462 108.307692H78.690462C38.912 108.307692 0 151.236923 0 187.076923V817.230769c0 35.84 38.912 78.769231 78.690462 78.769231H1024c39.778462 0 78.769231-42.929231 78.769231-78.769231v-630.153846c0-35.84-38.990769-78.769231-78.769231-78.769231H551.384615l-393.846153-236.307692v236.307692z"  horiz-adv-x="1102" />

    
    <glyph glyph-name="Backtop-Top" unicode="&#58993;" d="M938.7 136.5c-6.6 0-13.1 2.5-18.1 7.5L512 552.6 103.4 144c-10-10-26.2-10-36.2 0-10 10-10 26.2 0 36.2l426.7 426.7c10 10 26.2 10 36.2 0l426.7-426.7c10-10 10-26.2 0-36.2-5-5-11.6-7.5-18.1-7.5z"  horiz-adv-x="1024" />

    
    <glyph glyph-name="ico_candy" unicode="&#58920;" d="M837.726149-18.665347999999994c13.666831 9.6174 12.654474 27.333663 12.148295 32.901631-0.506179 8.098863-2.530895 17.716263-4.049432 27.839842-2.024716 11.135937-4.55561 22.778052-5.061789 32.901631-0.506179 12.148295 1.518537 15.185368 1.518537 15.185368 7.592684 10.629758 13.16065199 11.642116 24.296589 13.666832 15.185368 3.037074 35.938705 7.592684 53.654968 37.96342 15.69154701 27.839842 9.6174 49.605536 5.061789 65.803263-4.049432 13.666831-5.567968 19.740979 0 29.35837801s28.8522 18.222442 44.037568 23.79041099c8.605042 3.037074 16.703905 6.074147 23.284232 9.617399 12.654474 6.580326 19.740979 15.185368 20.753336 25.815127 1.518537 19.23479999-16.703905 29.864558-22.271873 32.901631-45.556105 26.32130501-97.692536 32.395452-146.791893 17.210084-15.185368-4.55561-29.358379-11.135937-42.519032-19.2348 6.580326 39.481957 4.55561 79.976273-6.074147 119.964409C775.972318 520.9214039999999 728.391498 582.169056 662.588235 620.63865501c-66.309441 37.963421-143.248641 48.087-217.150766 28.34602099-39.481957-10.62975799-75.420662-28.8522-105.791399-54.161147 0 15.691547-1.518537 31.383094-5.06178899 47.074642-11.642116 50.617894-43.531389 93.136925-89.59367301 119.964409-6.074147 3.543253-25.308947 14.679189-42.01285199 3.037074-9.6174-6.580326-13.666831-17.716263-13.16065301-32.901631 0.506179-7.592684 2.024716-16.197726 3.543253-25.308947 3.037074-15.691547 7.086505-39.481957 2.024716-48.593179-5.061789-8.605042-10.123579-10.123579-23.790411-13.666831-16.703905-4.049432-39.481957-10.123579-55.679683-38.4696-18.222442-31.383094-10.62975799-52.64261-6.074148-66.81562 3.543253-10.629758 5.061789-15.185368 0-26.321305 0-0.506179-2.530895-3.543253-12.65447299-8.605042-8.605042-4.55561-19.2348-8.098863-29.86455801-11.642116-9.6174-3.543253-18.728621-6.580326-26.321305-10.629758-5.567968-2.530895-22.271873-10.629758-23.79041001-28.852199l1e-8-2.530895c0-9.11122099 4.049432-20.753337 21.259516-30.370737 63.778547-36.951063 139.705388-34.420168 199.43450301 0-2.530895-15.185368-4.049432-30.876915-4.04943201-47.074641 0-24.80276799 3.037074-50.111715 10.123579-74.40830499 19.740979-73.902126 67.32179899-135.149778 133.125062-173.61937701 66.309441-37.963421 143.248641-48.087 217.150766-28.346021 40.494315 11.135937 77.445378 30.370737 108.828473 56.185863 0-17.210084 2.530895-33.913989 6.580326-51.12407301 13.666831-51.124073 46.568463-93.643104 92.124567-119.96440999 13.16065199-7.086505 25.815126-7.592684 35.938705-0.506178z m-75.926841 392.28868c0-35.432526-7.592684-71.371231-24.296589-105.28522-3.543253-5.061789-6.580326-10.123579-9.6174-15.185369-3.037074-5.061789-5.567968-10.123579-8.098863-15.185368-23.284231-34.420168-54.161147-61.75383099-91.11221-80.482452L697.514582 538.637667c41.506673-45.049926 64.284726-104.779041 64.284726-165.014335zM660.057341 571.5392979999999l-77.445379-432.276817-1.012357-0.506178c-27.333663-7.086505-54.667326-9.6174-82.000989-7.592685L584.636678 607.9841819999999c18.728621-5.567968 37.457242-13.160652 55.173505-23.284231 7.086505-4.049432 13.666831-8.098863 20.247158-13.160653zM84.025704 450.562531c26.827484 9.6174 56.185863 20.247158 66.815621 44.037568 5.567968 12.14829499 7.086505 22.271873 7.086505 31.383094 0 11.642116-3.037074 21.259516-5.567968 28.346021-3.543253 11.135937-5.061789 16.197726 2.024715 28.85220001 6.074147 10.629758 12.148295 12.654474 26.827484 16.19772599 16.197726 4.049432 37.963421 9.6174 53.148789 35.938705 12.654474 21.765695 9.111221 50.111715 5.06179001 73.395946 24.296589-19.740979 41.506673-46.568463 48.08699899-76.93919901 8.605042-37.96342101 2.024716-78.457736-18.728621-114.90261998-20.247158-35.432526-53.148789-60.741473-92.630746-71.37123101-30.87691499-7.592684-62.766189-6.07414699-92.124568 5.06179z m214.113693 25.81512599c4.049432 5.567968 8.098863 11.642116 11.642116 17.71626301 3.543253 6.580326 7.086505 12.654474 10.123578 19.2348 23.284231 32.901631 53.654968 58.716757 87.568957 76.43302l-68.334157-380.64656499c-65.297084 71.371231-83.51952499 177.16263-41.000494 267.26248198z m78.457736-299.65793399l77.445378 431.770638c27.333663 7.592684 56.185863 10.629758 85.038062 8.098863l-85.544241-476.820564c-19.23479999 5.567968-38.4696 13.16065199-56.692041 23.790411-7.086505 4.049432-13.666831 8.098863-20.247158 13.160652z m373.05388-62.26001c-9.111221 34.420168-6.580326 70.358873 7.592684 102.754326 3.037074 4.55561 6.074147 9.6174 8.605042 14.17301 3.037074 5.061789 5.567968 10.123579 8.098864 15.185368 20.753337 28.8522 49.099357 50.111715 81.494809 60.235294 32.395452 9.6174 66.309441 8.098863 97.186357-5.567968-23.284231-8.60504201-52.136431-19.2348-65.297083-42.012852-14.679189-25.308947-8.605042-46.568463-4.049432-62.26001 4.049432-13.666831 6.074147-20.753337-1.012358-32.90163099-8.098863-13.666831-13.666831-15.185368-25.308947-17.71626301-13.666831-3.037074-32.901631-6.580326-49.605536-30.876916-15.185368-21.259516-9.111221-53.148789-4.049432-80.988631 0-1.012358 0.506179-1.518537 0.506179-2.530894-26.321305 20.753337-45.556105 49.099357-54.161147 82.507167z m0 0"  horiz-adv-x="1024" />

    
    <glyph glyph-name="home_ico_like-" unicode="&#58914;" d="M977.6128 521.8304c0 155.2384-121.856 281.6-271.36 281.6A265.5232 265.5232 0 0 1 512 717.2096a265.8816 265.8816 0 0 1-194.2528 86.2208c-149.6064 0-271.36-126.2592-271.36-281.6a122.88 122.88 0 0 1 0.9216-13.6704v-3.84A239.5136 239.5136 0 0 1 66.9184 414.72c0.4096-1.1776 0.8192-2.304 1.3312-3.328C150.9376 212.8896 469.248-15.36 482.7648-25.6a46.6944 46.6944 0 0 1 57.1904 0.256c11.5712 9.0112 283.0848 204.4416 390.8608 389.12a191.6928 191.6928 0 0 1 9.8816 17.5104c0.8192 1.6896 1.5872 3.328 2.5088 5.12l0.3584 0.768a17.3056 17.3056 0 0 0 1.1776 1.8944 299.8784 299.8784 0 0 1 15.6672 35.84 223.7952 223.7952 0 0 1 16.64 79.7696v5.12a113.0496 113.0496 0 0 1 0.5632 12.032z"  horiz-adv-x="1024" />

    
    <glyph glyph-name="reward" unicode="&#58881;" d="M395.087 464.902H627.55v-42.465H395.087v42.465z m0 0M512 830.7139999999999c-246.72 0-446.71-199.998-446.71-446.71 0-246.71 199.99-446.718 446.71-446.718s446.708 200.008 446.708 446.718c0 246.712-199.99 446.71-446.709 446.71zM258.752 578.9h107.28c-8.933 8.933-23.854 22.353-44.706 40.23-7.468 5.941-12.669 10.408-15.634 13.409l53.64 13.418c35.753-28.33 61.805-49.95 78.225-64.825l-4.484-2.234h46.939v73.759h62.592v-73.76h44.706l-4.467 2.235c25.32 17.886 52.14 39.461 80.46 64.825l53.64-13.418c-17.868-17.878-38.755-35.763-62.574-53.64h109.532V478.31h-60.358v58.125H316.861v-58.125h-58.107V578.899h-0.001zM361.566 308.44000000000005v-93.88H301.21V350.90999999999997h422.454v-131.884h-58.125V308.44000000000005H361.566zM334.728 382.20000000000005V502.898h350.93v-120.699h-350.93z m404.57-261.517c-99.847 38.774-175.84 64.826-227.979 78.226-32.806-40.22-113.998-67.04-243.63-80.459-5.969 17.886-13.42 35.772-22.354 53.64 165.404 7.484 245.096 45.439 239.164 113.998h60.34c-1.5-16.421-5.234-31.289-11.167-44.707 26.82-7.467 66.273-20.101 118.465-37.986 50.638-14.92 88.627-26.053 113.999-33.54l-26.839-49.172z m0 0"  horiz-adv-x="1024" />

    
    <glyph glyph-name="secure" unicode="&#59203;" d="M956.709839 752.685052a33.472988 33.472988 0 0 1-24.177991 27.63199L520.967997 894.773a33.445988 33.445988 0 0 1-17.935994 0L91.468152 780.317042a33.463988 33.463988 0 0 1-24.177991-27.63199c-2.387999-17.164994-56.844979-422.731847 82.83397-624.488775 139.51395-201.515927 345.326875-253.156909 354.018872-255.258907a33.392988 33.392988 0 0 1 15.713994 0c8.696997 2.101999 214.509922 53.742981 354.018872 255.259907 139.67895 201.751927 85.221969 607.317781 82.83397 624.487775zM777.405904 515.910137L496.678006 235.183239c-6.531998-6.531998-15.099995-9.802996-23.660992-9.802997s-17.129994 3.265999-23.661991 9.802997L275.784085 408.754176a33.449988 33.449988 0 0 0 0 47.322983l34.462988 34.463988a33.463988 33.463988 0 0 0 47.322983 0l115.446958-115.446959 222.60192 222.60692a33.449988 33.449988 0 0 0 47.322983 0l34.463987-34.462988a33.463988 33.463988 0 0 0 0-47.326983z"  horiz-adv-x="1024" />

    
    <glyph glyph-name="xiaolian" unicode="&#58996;" d="M512 857.598c63.952 0 125.971-12.517 184.334-37.202 56.391-23.851 107.044-58.005 150.55-101.512 43.507-43.507 77.66-94.159 101.512-150.55 24.685-58.363 37.202-120.382 37.202-184.334s-12.517-125.971-37.202-184.334c-23.851-56.391-58.005-107.044-101.512-150.55-43.507-43.507-94.159-77.66-150.55-101.512-58.363-24.685-120.382-37.202-184.334-37.202s-125.971 12.517-184.334 37.202c-56.391 23.851-107.044 58.005-150.55 101.512-43.507 43.507-77.66 94.159-101.512 150.55C50.919 258.029 38.402 320.048 38.402 384s12.517 125.971 37.202 184.334c23.851 56.391 58.005 107.044 101.512 150.55 43.507 43.507 94.159 77.66 150.55 101.512C386.029 845.081 448.048 857.598 512 857.598M512 896C229.23 896 0 666.77 0 384s229.23-512 512-512 512 229.23 512 512S794.77 896 512 896zM750.06 242.996c0-131.477-106.583-238.06-238.06-238.06S273.941 111.52 273.941 242.996H750.06zM293.322 486.928a99.205 50.136 90 1 1 100.272 0 99.205 50.136 90 1 1-100.272 0ZM630.406 486.928a99.205 50.136 90 1 1 100.272 0 99.205 50.136 90 1 1-100.272 0Z"  horiz-adv-x="1024" />

    
    <glyph glyph-name="yumaobi" unicode="&#58902;" d="M70.127236-77.153635S270.809762 632.822764 952.047717 896c0 0 11.343322-43.031637-30.411051-91.233153s-152.055255-152.055255-152.055255-152.055256-8.210984-43.670269 152.055255 30.411051c0 0-20.040883-154.913894-212.877358-182.466306 0 0-18.946085-19.219784 30.411052-30.411051 0 0 193.687984 44.734656 30.411051-91.233154 0 0-185.355356-95.004124-334.521562-121.644204-149.166206-26.640081-304.110511-364.932613-304.110511-364.932613s-56.71661-62.190599-60.822102 30.411051z"  horiz-adv-x="1024" />

    
    <glyph glyph-name="Menuicon" unicode="&#58884;" d="M18.285714 896m72.521143 0l1317.814857 0q72.521143 0 72.521143-72.521143l0-0.036571q0-72.521143-72.521143-72.521143l-1317.814857 0q-72.521143 0-72.521143 72.521143l0 0.036571q0 72.521143 72.521143 72.521143ZM18.285714 460.763429m72.521143 0l1317.814857 0q72.521143 0 72.521143-72.521143l0-0.036572q0-72.521143-72.521143-72.521143l-1317.814857 0q-72.521143 0-72.521143 72.521143l0 0.036572q0 72.521143 72.521143 72.521143ZM90.843429 25.526857c-40.082286 0-72.557714-32.182857-72.557715-72.521143a72.411429 72.411429 0 0 1 72.777143-72.557714H1408.365714c40.228571 0 72.813714 32.182857 72.813715 72.557714a72.630857 72.630857 0 0 1-72.557715 72.521143H90.843429z"  horiz-adv-x="1499" />

    
    <glyph glyph-name="Aa2" unicode="&#59032;" d="M264.96 640h97.472l201.6-502.144H465.792L416.704 270.72H207.68l-49.088-132.928H64L264.96 640z m-32.32-302.4h159.872L314.048 553.472h-2.24L232.64 337.6z m687.04-118.848c0-9.856 1.28-16.896 4.032-21.12 2.688-4.224 7.936-6.336 15.744-6.336h8.832a56.96 56.96 0 0 1 11.712 1.408v-55.552a253.76 253.76 0 0 0-25.664-6.336 157.76 157.76 0 0 0-27.136-2.816c-17.088 0-31.296 3.264-42.496 9.856-11.264 6.528-18.56 18.048-22.016 34.432-16.64-15.424-37.056-26.688-61.248-33.728-24.192-7.04-47.488-10.56-70.016-10.56a178.56 178.56 0 0 0-49.088 6.656 131.2 131.2 0 0 0-41.472 19.712 95.36 95.36 0 0 0-28.544 33.088 98.368 98.368 0 0 0-10.688 46.72c0 22.528 4.288 40.832 12.8 54.848 8.64 14.08 19.84 25.088 33.792 33.088 13.952 8 29.568 13.696 46.912 17.28 17.344 3.456 34.816 6.144 52.48 8.064a446.08 446.08 0 0 0 43.2 5.952c13.696 1.152 25.792 3.2 36.288 5.952a56.32 56.32 0 0 1 24.96 13.056c6.08 5.824 9.152 14.656 9.152 26.368a39.872 39.872 0 0 1-7.68 25.28 51.2 51.2 0 0 1-19.072 15.168 84.992 84.992 0 0 1-25.28 7.04A211.2 211.2 0 0 1 762.752 448c-23.424 0-42.752-4.672-57.92-14.08-15.168-9.344-23.68-23.872-25.6-43.584H595.52c1.472 23.424 7.36 42.88 17.6 58.368 10.24 15.488 23.36 27.904 39.232 37.248 15.872 9.408 33.856 16 53.888 19.712a334.08 334.08 0 0 0 61.568 5.632c18.56 0 36.928-1.92 55.04-5.632 18.048-3.776 34.304-9.856 48.704-18.304 14.464-8.384 26.048-19.328 34.88-32.64 8.768-13.44 13.184-29.696 13.184-48.896v-187.072zM836.096 320c-12.736-8-28.352-12.8-46.912-14.4-18.56-1.664-37.12-4.096-55.744-7.424a184.96 184.96 0 0 1-25.664-5.952c-8.32-2.56-15.616-6.08-22.016-10.56a46.784 46.784 0 0 1-15.04-17.6 58.048 58.048 0 0 1-5.504-26.368c0-8.896 2.688-16.384 8.064-22.464 5.376-6.144 11.904-10.88 19.456-14.464 7.552-3.52 15.872-5.952 24.96-7.36 8.96-1.408 17.216-2.112 24.512-2.112 9.28 0 19.328 1.152 30.08 3.52a102.4 102.4 0 0 1 30.464 11.968c9.472 5.632 17.472 12.8 23.808 21.44a52.672 52.672 0 0 1 9.536 32V320z"  horiz-adv-x="1024" />

    
    <glyph glyph-name="ico_search_change" unicode="&#58907;" d="M796 188.8c12.8 16 35.2 22.4 51.2 9.6 16-12.8 22.4-35.2 9.6-51.2-16-22.4-32-41.6-51.2-60.8-19.2-19.2-38.4-35.2-60.8-51.2s-44.8-28.8-70.4-38.4c-25.6-9.6-51.2-19.2-76.8-22.4-25.6-3.2-54.4-6.4-83.2-6.4s-57.6 3.2-83.2 9.6c-25.6 6.4-54.4 12.8-76.8 22.4-25.6 9.6-48 22.4-70.4 38.4-22.4 16-41.6 32-60.8 51.2-19.2 19.2-35.2 38.4-51.2 60.8s-28.8 44.8-38.4 70.4c-9.6 25.6-19.2 51.2-25.6 76.8-3.2 19.2-6.4 41.6-6.4 60.8l-35.2-32c-16-16-38.4-16-54.4 0s-16 38.4 0 51.2l96 96c16 16 38.4 16 54.4 0l96-96c16-16 16-38.4 0-51.2-6.4-6.4-16-9.6-25.6-9.6-9.6 0-19.2 3.2-25.6 9.6l-32 32c0-16 3.2-28.8 6.4-44.8 3.2-22.4 9.6-41.6 19.2-64 9.6-19.2 19.2-38.4 32-57.6 12.8-19.2 25.6-35.2 41.6-48 16-16 32-28.8 51.2-41.6 19.2-12.8 38.4-22.4 57.6-32 19.2-9.6 41.6-16 64-19.2 44.8-9.6 92.8-9.6 137.6 0 22.4 3.2 44.8 9.6 64 19.2 19.2 9.6 38.4 19.2 57.6 32 19.2 12.8 35.2 25.6 51.2 41.6 12.8 9.6 28.8 28.8 38.4 44.8z m166.4 256c16 16 38.4 16 54.4 0s16-38.4 0-51.2l-96-96c-6.4-6.4-16-9.6-25.6-9.6s-19.2 3.2-25.6 9.6l-96 96c-16 16-16 38.4 0 51.2s38.4 16 54.4 0l32-32c0 16-3.2 28.8-6.4 44.8-3.2 22.4-9.6 41.6-19.2 64-9.6 19.2-19.2 38.4-32 57.6-12.8 19.2-25.6 35.2-41.6 48s-32 28.8-51.2 41.6c-19.2 12.8-38.4 22.4-57.6 32-19.2 9.6-41.6 16-64 19.2-44.8 9.6-92.8 9.6-137.6 0-22.4-3.2-44.8-9.6-64-19.2-19.2-9.6-38.4-19.2-57.6-32-22.4-12.8-41.6-25.6-54.4-41.6-16-12.8-32-28.8-41.6-48-12.8-16-35.2-22.4-51.2-9.6-19.2 9.6-25.6 35.2-12.8 51.2 16 22.4 32 41.6 51.2 60.8 19.2 16 38.4 35.2 60.8 48 22.4 16 44.8 28.8 70.4 38.4 25.6 9.6 51.2 19.2 76.8 22.4 54.4 9.6 112 9.6 166.4 0 28.8-3.2 54.4-12.8 80-22.4 25.6-9.6 48-22.4 70.4-38.4 22.4-16 41.6-32 60.8-51.2 19.2-19.2 35.2-38.4 51.2-60.8s28.8-44.8 38.4-70.4c9.6-25.6 19.2-51.2 25.6-76.8 3.2-19.2 6.4-41.6 6.4-60.8l35.2 35.2z"  horiz-adv-x="1028" />

    
    <glyph glyph-name="phone-download" unicode="&#58947;" d="M256 896v-1024h576V896H256z m512-832H320V768h448v-704zM448 640h188.8v-256H448V640z m256-256l-160-192-160 192h320z"  horiz-adv-x="1024" />

    
    <glyph glyph-name="search" unicode="&#58963;" d="M400.696889 94.606222A400.668444 400.668444 0 1 0 400.696889 896a400.668444 400.668444 0 0 0 0-801.393778z m0 89.031111a311.637333 311.637333 0 1 1 0 623.331556 311.637333 311.637333 0 0 1 0-623.331556zM667.904 294.001778l314.766222-314.823111-62.919111-62.976-314.823111 314.823111z"  horiz-adv-x="1024" />

    
    <glyph glyph-name="dianzishucheng" unicode="&#58892;" d="M304.493-107.70000000000005c-56.387 0-96.986 13.533-126.308 40.599-29.322 29.321-42.855 72.176-42.855 133.075 4.511 153.374 2.256 306.748 2.256 457.867v221.04c0 81.198 47.366 128.564 130.82 128.564h433.057c49.62 0 83.453-27.066 99.242-78.943 4.51-15.788-4.511-31.577-18.044-36.088-15.789-4.51-33.833 4.511-38.344 20.3-9.022 31.577-24.81 38.343-45.11 38.343H266.15c-49.621 0-72.176-22.555-72.176-72.176v-13.533h656.352c18.044-2.255 29.322-15.789 29.322-31.577v-778.15c0-15.788-13.533-29.321-29.322-29.321H685.674c-128.564 0-252.617 0-376.67-2.256 0 2.256-2.255 2.256-4.51 2.256zM196.23 672.705v-146.608c0-151.119 0-306.749-2.255-457.868 0-45.11 6.766-74.432 24.81-92.476 18.044-18.044 47.366-24.81 90.22-24.81 126.309 2.255 248.106 2.255 378.926 2.255h135.33V674.96H196.23z m475.912-232.317H324.793c-15.789 0-29.322 13.533-29.322 29.321 0 15.789 13.533 29.322 29.322 29.322h347.348c15.789 0 29.322-13.533 29.322-29.322 0-15.788-13.533-29.321-29.322-29.321z m-96.987-153.375H333.815c-15.789 0-29.322 13.533-29.322 29.322 0 15.788 13.533 29.321 29.322 29.321h241.34c15.788 0 29.32-13.533 29.32-29.321 0-15.789-13.532-29.322-29.32-29.322z"  horiz-adv-x="1024" />

    


  </font>
</defs>
</svg>
